<?xml version="1.0" encoding="UTF-8" standalone="no"?>
<!DOCTYPE svg PUBLIC "-//W3C//DTD SVG 1.1//EN"
 "http://www.w3.org/Graphics/SVG/1.1/DTD/svg11.dtd">
<!-- Generated by graphviz version 2.40.1 (20161225.0304)
 -->
<!-- Title: dependencies Pages: 1 -->
<svg width="538pt" height="284pt"
 viewBox="0.00 0.00 538.00 284.00" xmlns="http://www.w3.org/2000/svg" xmlns:xlink="http://www.w3.org/1999/xlink">
<g id="graph0" class="graph" transform="scale(1 1) rotate(0) translate(4 280)">
<title>dependencies</title>
<polygon fill="#ffffff" stroke="transparent" points="-4,4 -4,-280 534,-280 534,4 -4,4"/>
<text text-anchor="start" x="244.0091" y="-42.4" font-family="sans-serif" font-weight="bold" font-size="14.00" fill="#000000">Legend</text>
<polygon fill="#ffffb3" stroke="transparent" points="31,-10 31,-30 51,-30 51,-10 31,-10"/>
<text text-anchor="start" x="54.629" y="-15.4" font-family="sans-serif" font-size="14.00" fill="#000000"> &#160;Declarations</text>
<polygon fill="#8dd3c7" stroke="transparent" points="144,-10 144,-30 164,-30 164,-10 144,-10"/>
<text text-anchor="start" x="167.7251" y="-15.4" font-family="sans-serif" font-size="14.00" fill="#000000"> &#160;Module</text>
<polygon fill="#80b1d3" stroke="transparent" points="230,-10 230,-30 250,-30 250,-10 230,-10"/>
<text text-anchor="start" x="253.7812" y="-15.4" font-family="sans-serif" font-size="14.00" fill="#000000"> &#160;Bootstrap</text>
<polygon fill="#fdb462" stroke="transparent" points="327,-10 327,-30 347,-30 347,-10 327,-10"/>
<text text-anchor="start" x="350.6732" y="-15.4" font-family="sans-serif" font-size="14.00" fill="#000000"> &#160;Providers</text>
<polygon fill="#fb8072" stroke="transparent" points="423,-10 423,-30 443,-30 443,-10 423,-10"/>
<text text-anchor="start" x="446.7258" y="-15.4" font-family="sans-serif" font-size="14.00" fill="#000000"> &#160;Exports</text>
<g id="clust1" class="cluster">
<title>cluster_SharedModule</title>
<polygon fill="none" stroke="#000000" stroke-dasharray="1,5" points="8,-70 8,-268 522,-268 522,-70 8,-70"/>
</g>
<g id="clust2" class="cluster">
<title>cluster_SharedModule_declarations</title>
<polygon fill="none" stroke="#000000" points="168,-78 168,-130 514,-130 514,-78 168,-78"/>
</g>
<g id="clust5" class="cluster">
<title>cluster_SharedModule_imports</title>
<polygon fill="none" stroke="#000000" points="16,-78 16,-130 160,-130 160,-78 16,-78"/>
</g>
<g id="clust6" class="cluster">
<title>cluster_SharedModule_exports</title>
<polygon fill="none" stroke="#000000" points="89,-208 89,-260 441,-260 441,-208 89,-208"/>
</g>
<!-- AlertModalComponent -->
<g id="node1" class="node">
<title>AlertModalComponent</title>
<polygon fill="#ffffb3" stroke="#000000" points="506.1456,-122 359.8544,-122 359.8544,-86 506.1456,-86 506.1456,-122"/>
<text text-anchor="middle" x="433" y="-99.8" font-family="Times,serif" font-size="14.00" fill="#000000">AlertModalComponent</text>
</g>
<!-- SharedModule -->
<g id="node3" class="node">
<title>SharedModule</title>
<polygon fill="#8dd3c7" stroke="#000000" points="308.4231,-187 305.4231,-191 284.4231,-191 281.4231,-187 209.5769,-187 209.5769,-151 308.4231,-151 308.4231,-187"/>
<text text-anchor="middle" x="259" y="-164.8" font-family="Times,serif" font-size="14.00" fill="#000000">SharedModule</text>
</g>
<!-- AlertModalComponent&#45;&gt;SharedModule -->
<g id="edge1" class="edge">
<title>AlertModalComponent&#45;&gt;SharedModule</title>
<path fill="none" stroke="#000000" d="M396.375,-122.1061C396.375,-141.3391 396.375,-169 396.375,-169 396.375,-169 318.5955,-169 318.5955,-169"/>
<polygon fill="#000000" stroke="#000000" points="318.5956,-165.5001 308.5955,-169 318.5955,-172.5001 318.5956,-165.5001"/>
</g>
<!-- ConfirmModelComponent -->
<g id="node2" class="node">
<title>ConfirmModelComponent</title>
<polygon fill="#ffffb3" stroke="#000000" points="341.8215,-122 176.1785,-122 176.1785,-86 341.8215,-86 341.8215,-122"/>
<text text-anchor="middle" x="259" y="-99.8" font-family="Times,serif" font-size="14.00" fill="#000000">ConfirmModelComponent</text>
</g>
<!-- ConfirmModelComponent&#45;&gt;SharedModule -->
<g id="edge2" class="edge">
<title>ConfirmModelComponent&#45;&gt;SharedModule</title>
<path fill="none" stroke="#000000" d="M259,-122.1061C259,-122.1061 259,-140.991 259,-140.991"/>
<polygon fill="#000000" stroke="#000000" points="255.5001,-140.9909 259,-150.991 262.5001,-140.991 255.5001,-140.9909"/>
</g>
<!-- AlertModalComponent  -->
<g id="node5" class="node">
<title>AlertModalComponent </title>
<polygon fill="#fb8072" stroke="#000000" points="433.1453,-252 282.8547,-252 282.8547,-216 433.1453,-216 433.1453,-252"/>
<text text-anchor="middle" x="358" y="-229.8" font-family="Times,serif" font-size="14.00" fill="#000000">AlertModalComponent </text>
</g>
<!-- SharedModule&#45;&gt;AlertModalComponent  -->
<g id="edge4" class="edge">
<title>SharedModule&#45;&gt;AlertModalComponent </title>
<path fill="none" stroke="#000000" stroke-dasharray="5,2" d="M295.5693,-187.1061C295.5693,-187.1061 295.5693,-205.991 295.5693,-205.991"/>
<polygon fill="#000000" stroke="#000000" points="292.0693,-205.9909 295.5693,-215.991 299.0693,-205.991 292.0693,-205.9909"/>
</g>
<!-- ConfirmModelComponent  -->
<g id="node6" class="node">
<title>ConfirmModelComponent </title>
<polygon fill="#fb8072" stroke="#000000" points="265.3213,-252 96.6787,-252 96.6787,-216 265.3213,-216 265.3213,-252"/>
<text text-anchor="middle" x="181" y="-229.8" font-family="Times,serif" font-size="14.00" fill="#000000">ConfirmModelComponent </text>
</g>
<!-- SharedModule&#45;&gt;ConfirmModelComponent  -->
<g id="edge5" class="edge">
<title>SharedModule&#45;&gt;ConfirmModelComponent </title>
<path fill="none" stroke="#000000" stroke-dasharray="5,2" d="M237.5998,-187.1061C237.5998,-187.1061 237.5998,-205.991 237.5998,-205.991"/>
<polygon fill="#000000" stroke="#000000" points="234.0998,-205.9909 237.5998,-215.991 241.0998,-205.991 234.0998,-205.9909"/>
</g>
<!-- AppRoutingModule -->
<g id="node4" class="node">
<title>AppRoutingModule</title>
<polygon fill="#8dd3c7" stroke="#000000" points="152.2744,-122 149.2744,-126 128.2744,-126 125.2744,-122 23.7256,-122 23.7256,-86 152.2744,-86 152.2744,-122"/>
<text text-anchor="middle" x="88" y="-99.8" font-family="Times,serif" font-size="14.00" fill="#000000">AppRoutingModule</text>
</g>
<!-- AppRoutingModule&#45;&gt;SharedModule -->
<g id="edge3" class="edge">
<title>AppRoutingModule&#45;&gt;SharedModule</title>
<path fill="none" stroke="#000000" d="M124.4883,-122.1061C124.4883,-141.3391 124.4883,-169 124.4883,-169 124.4883,-169 199.6766,-169 199.6766,-169"/>
<polygon fill="#000000" stroke="#000000" points="199.6766,-172.5001 209.6766,-169 199.6766,-165.5001 199.6766,-172.5001"/>
</g>
</g>
</svg>
