<?xml version="1.0" encoding="UTF-8" standalone="no"?>
<!DOCTYPE svg PUBLIC "-//W3C//DTD SVG 1.1//EN"
 "http://www.w3.org/Graphics/SVG/1.1/DTD/svg11.dtd">
<!-- Generated by graphviz version 2.40.1 (20161225.0304)
 -->
<!-- Title: dependencies Pages: 1 -->
<svg width="786pt" height="284pt"
 viewBox="0.00 0.00 786.00 284.00" xmlns="http://www.w3.org/2000/svg" xmlns:xlink="http://www.w3.org/1999/xlink">
<g id="graph0" class="graph" transform="scale(1 1) rotate(0) translate(4 280)">
<title>dependencies</title>
<polygon fill="#ffffff" stroke="transparent" points="-4,4 -4,-280 782,-280 782,4 -4,4"/>
<text text-anchor="start" x="368.0091" y="-42.4" font-family="sans-serif" font-weight="bold" font-size="14.00" fill="#000000">Legend</text>
<polygon fill="#ffffb3" stroke="transparent" points="155,-10 155,-30 175,-30 175,-10 155,-10"/>
<text text-anchor="start" x="178.629" y="-15.4" font-family="sans-serif" font-size="14.00" fill="#000000"> &#160;Declarations</text>
<polygon fill="#8dd3c7" stroke="transparent" points="268,-10 268,-30 288,-30 288,-10 268,-10"/>
<text text-anchor="start" x="291.7251" y="-15.4" font-family="sans-serif" font-size="14.00" fill="#000000"> &#160;Module</text>
<polygon fill="#80b1d3" stroke="transparent" points="354,-10 354,-30 374,-30 374,-10 354,-10"/>
<text text-anchor="start" x="377.7812" y="-15.4" font-family="sans-serif" font-size="14.00" fill="#000000"> &#160;Bootstrap</text>
<polygon fill="#fdb462" stroke="transparent" points="451,-10 451,-30 471,-30 471,-10 451,-10"/>
<text text-anchor="start" x="474.6732" y="-15.4" font-family="sans-serif" font-size="14.00" fill="#000000"> &#160;Providers</text>
<polygon fill="#fb8072" stroke="transparent" points="547,-10 547,-30 567,-30 567,-10 547,-10"/>
<text text-anchor="start" x="570.7258" y="-15.4" font-family="sans-serif" font-size="14.00" fill="#000000"> &#160;Exports</text>
<g id="clust1" class="cluster">
<title>cluster_ModulosModule</title>
<polygon fill="none" stroke="#000000" stroke-dasharray="1,5" points="8,-70 8,-268 770,-268 770,-70 8,-70"/>
</g>
<g id="clust2" class="cluster">
<title>cluster_ModulosModule_declarations</title>
<polygon fill="none" stroke="#000000" points="168,-78 168,-130 762,-130 762,-78 168,-78"/>
</g>
<g id="clust7" class="cluster">
<title>cluster_ModulosModule_imports</title>
<polygon fill="none" stroke="#000000" points="16,-78 16,-130 160,-130 160,-78 16,-78"/>
</g>
<g id="clust8" class="cluster">
<title>cluster_ModulosModule_exports</title>
<polygon fill="none" stroke="#000000" points="137,-208 137,-260 617,-260 617,-208 137,-208"/>
</g>
<!-- BarometroComponent -->
<g id="node1" class="node">
<title>BarometroComponent</title>
<polygon fill="#ffffb3" stroke="#000000" points="753.7007,-122 612.2993,-122 612.2993,-86 753.7007,-86 753.7007,-122"/>
<text text-anchor="middle" x="683" y="-99.8" font-family="Times,serif" font-size="14.00" fill="#000000">BarometroComponent</text>
</g>
<!-- ModulosModule -->
<g id="node5" class="node">
<title>ModulosModule</title>
<polygon fill="#8dd3c7" stroke="#000000" points="421.8301,-187 418.8301,-191 397.8301,-191 394.8301,-187 312.1699,-187 312.1699,-151 421.8301,-151 421.8301,-187"/>
<text text-anchor="middle" x="367" y="-164.8" font-family="Times,serif" font-size="14.00" fill="#000000">ModulosModule</text>
</g>
<!-- BarometroComponent&#45;&gt;ModulosModule -->
<g id="edge1" class="edge">
<title>BarometroComponent&#45;&gt;ModulosModule</title>
<path fill="none" stroke="#000000" d="M683,-122.1061C683,-141.3391 683,-169 683,-169 683,-169 431.6822,-169 431.6822,-169"/>
<polygon fill="#000000" stroke="#000000" points="431.6823,-165.5001 421.6822,-169 431.6822,-172.5001 431.6823,-165.5001"/>
</g>
<!-- ConteudoUmComponent -->
<g id="node2" class="node">
<title>ConteudoUmComponent</title>
<polygon fill="#ffffb3" stroke="#000000" points="594.2716,-122 437.7284,-122 437.7284,-86 594.2716,-86 594.2716,-122"/>
<text text-anchor="middle" x="516" y="-99.8" font-family="Times,serif" font-size="14.00" fill="#000000">ConteudoUmComponent</text>
</g>
<!-- ConteudoUmComponent&#45;&gt;ModulosModule -->
<g id="edge2" class="edge">
<title>ConteudoUmComponent&#45;&gt;ModulosModule</title>
<path fill="none" stroke="#000000" d="M442.375,-122.027C442.375,-138.3976 442.375,-160 442.375,-160 442.375,-160 431.7785,-160 431.7785,-160"/>
<polygon fill="#000000" stroke="#000000" points="431.7785,-156.5001 421.7785,-160 431.7784,-163.5001 431.7785,-156.5001"/>
</g>
<!-- SoftComponent -->
<g id="node3" class="node">
<title>SoftComponent</title>
<polygon fill="#ffffb3" stroke="#000000" points="419.1667,-122 314.8333,-122 314.8333,-86 419.1667,-86 419.1667,-122"/>
<text text-anchor="middle" x="367" y="-99.8" font-family="Times,serif" font-size="14.00" fill="#000000">SoftComponent</text>
</g>
<!-- SoftComponent&#45;&gt;ModulosModule -->
<g id="edge3" class="edge">
<title>SoftComponent&#45;&gt;ModulosModule</title>
<path fill="none" stroke="#000000" d="M367,-122.1061C367,-122.1061 367,-140.991 367,-140.991"/>
<polygon fill="#000000" stroke="#000000" points="363.5001,-140.9909 367,-150.991 370.5001,-140.991 363.5001,-140.9909"/>
</g>
<!-- VideosComponent -->
<g id="node4" class="node">
<title>VideosComponent</title>
<polygon fill="#ffffb3" stroke="#000000" points="296.4888,-122 175.5112,-122 175.5112,-86 296.4888,-86 296.4888,-122"/>
<text text-anchor="middle" x="236" y="-99.8" font-family="Times,serif" font-size="14.00" fill="#000000">VideosComponent</text>
</g>
<!-- VideosComponent&#45;&gt;ModulosModule -->
<g id="edge4" class="edge">
<title>VideosComponent&#45;&gt;ModulosModule</title>
<path fill="none" stroke="#000000" d="M291.6794,-122.027C291.6794,-138.3976 291.6794,-160 291.6794,-160 291.6794,-160 302.261,-160 302.261,-160"/>
<polygon fill="#000000" stroke="#000000" points="302.2611,-163.5001 312.261,-160 302.261,-156.5001 302.2611,-163.5001"/>
</g>
<!-- BarometroComponent  -->
<g id="node7" class="node">
<title>BarometroComponent </title>
<polygon fill="#fb8072" stroke="#000000" points="609.2009,-252 464.7991,-252 464.7991,-216 609.2009,-216 609.2009,-252"/>
<text text-anchor="middle" x="537" y="-229.8" font-family="Times,serif" font-size="14.00" fill="#000000">BarometroComponent </text>
</g>
<!-- ModulosModule&#45;&gt;BarometroComponent  -->
<g id="edge6" class="edge">
<title>ModulosModule&#45;&gt;BarometroComponent </title>
<path fill="none" stroke="#000000" stroke-dasharray="5,2" d="M422.0211,-178C469.1687,-178 529.5177,-178 529.5177,-178 529.5177,-178 529.5177,-205.973 529.5177,-205.973"/>
<polygon fill="#000000" stroke="#000000" points="526.0178,-205.973 529.5177,-215.973 533.0178,-205.973 526.0178,-205.973"/>
</g>
<!-- ConteudoUmComponent  -->
<g id="node8" class="node">
<title>ConteudoUmComponent </title>
<polygon fill="#fb8072" stroke="#000000" points="447.2716,-252 286.7284,-252 286.7284,-216 447.2716,-216 447.2716,-252"/>
<text text-anchor="middle" x="367" y="-229.8" font-family="Times,serif" font-size="14.00" fill="#000000">ConteudoUmComponent </text>
</g>
<!-- ModulosModule&#45;&gt;ConteudoUmComponent  -->
<g id="edge7" class="edge">
<title>ModulosModule&#45;&gt;ConteudoUmComponent </title>
<path fill="none" stroke="#000000" stroke-dasharray="5,2" d="M367,-187.1061C367,-187.1061 367,-205.991 367,-205.991"/>
<polygon fill="#000000" stroke="#000000" points="363.5001,-205.9909 367,-215.991 370.5001,-205.991 363.5001,-205.9909"/>
</g>
<!-- VideosComponent  -->
<g id="node9" class="node">
<title>VideosComponent </title>
<polygon fill="#fb8072" stroke="#000000" points="269.4898,-252 144.5102,-252 144.5102,-216 269.4898,-216 269.4898,-252"/>
<text text-anchor="middle" x="207" y="-229.8" font-family="Times,serif" font-size="14.00" fill="#000000">VideosComponent </text>
</g>
<!-- ModulosModule&#45;&gt;VideosComponent  -->
<g id="edge8" class="edge">
<title>ModulosModule&#45;&gt;VideosComponent </title>
<path fill="none" stroke="#000000" stroke-dasharray="5,2" d="M312.3235,-178C271.3682,-178 222.375,-178 222.375,-178 222.375,-178 222.375,-205.973 222.375,-205.973"/>
<polygon fill="#000000" stroke="#000000" points="218.8751,-205.973 222.375,-215.973 225.8751,-205.973 218.8751,-205.973"/>
</g>
<!-- AppRoutingModule -->
<g id="node6" class="node">
<title>AppRoutingModule</title>
<polygon fill="#8dd3c7" stroke="#000000" points="152.2744,-122 149.2744,-126 128.2744,-126 125.2744,-122 23.7256,-122 23.7256,-86 152.2744,-86 152.2744,-122"/>
<text text-anchor="middle" x="88" y="-99.8" font-family="Times,serif" font-size="14.00" fill="#000000">AppRoutingModule</text>
</g>
<!-- AppRoutingModule&#45;&gt;ModulosModule -->
<g id="edge5" class="edge">
<title>AppRoutingModule&#45;&gt;ModulosModule</title>
<path fill="none" stroke="#000000" d="M148.5714,-122.1061C148.5714,-141.3391 148.5714,-169 148.5714,-169 148.5714,-169 302.1632,-169 302.1632,-169"/>
<polygon fill="#000000" stroke="#000000" points="302.1632,-172.5001 312.1632,-169 302.1631,-165.5001 302.1632,-172.5001"/>
</g>
</g>
</svg>
